<svg xmlns="http://www.w3.org/2000/svg" xmlns:xlink="http://www.w3.org/1999/xlink" width="500" zoomAndPan="magnify" viewBox="0 0 375 374.999991" height="500" preserveAspectRatio="xMidYMid meet" version="1.0"><defs><clipPath id="ed0f80b2e2"><path d="M 16.253906 41.167969 L 365.753906 41.167969 L 365.753906 326.167969 L 16.253906 326.167969 Z M 16.253906 41.167969 " clip-rule="nonzero"/></clipPath></defs><g clip-path="url(#ed0f80b2e2)"><path fill="#364251" d="M 364.367188 217.917969 C 364.175781 217.984375 364.019531 218.109375 363.945312 218.34375 C 363.917969 218.367188 363.90625 218.382812 363.878906 218.40625 C 363.890625 217.675781 361.660156 216.261719 361.105469 215.667969 C 360.132812 214.628906 359.257812 213.460938 358.578125 212.199219 C 357.359375 209.902344 357 207.484375 358.039062 205.222656 C 358.554688 204.851562 358.695312 204.605469 358.746094 203.9375 C 358.914062 203.554688 358.71875 203.191406 358.386719 203.011719 C 358.375 203.011719 358.375 203 358.375 203 C 358.089844 202.832031 357.859375 202.730469 357.640625 202.667969 C 357.707031 201.035156 357.359375 199.3125 356.460938 197.460938 C 353.945312 192.324219 348.476562 190.28125 343.097656 190.421875 C 343.125 189.945312 342.828125 189.417969 342.214844 189.355469 C 336.757812 188.761719 331.316406 188.042969 325.875 187.246094 C 328.941406 185.488281 331.984375 183.648438 334.960938 181.722656 C 335.667969 181.273438 335.335938 180.257812 334.617188 180.078125 C 333.613281 179.808594 332.613281 179.550781 331.597656 179.28125 C 331.5625 179.265625 331.535156 179.28125 331.507812 179.28125 C 331.433594 179.152344 331.328125 179.023438 331.148438 178.933594 C 323.859375 175.167969 326.296875 163.835938 330.199219 158.566406 C 330.574219 158.066406 330.355469 157.511719 329.96875 157.230469 C 329.917969 157.179688 329.878906 157.113281 329.816406 157.078125 C 327.878906 155.867188 323.628906 155.035156 323.257812 154.941406 C 316.3125 153.335938 309.675781 151.820312 303.285156 150.367188 C 308.828125 133.664062 308.316406 114.96875 306.800781 101.847656 C 304.851562 84.992188 297.957031 71.691406 286.328125 62.324219 C 275.601562 53.636719 260.210938 47.46875 239.277344 43.4375 C 231.535156 41.933594 223.257812 41.175781 214.695312 41.175781 C 201.425781 41.175781 187.320312 43.039062 173.894531 46.546875 C 164.910156 48.898438 155.410156 51.992188 143.078125 56.605469 C 136.609375 59.023438 128.304688 62.582031 121.4375 68.710938 L 121.050781 69.070312 C 118.894531 70.5625 116.957031 72.539062 115.082031 74.46875 C 114.429688 75.148438 113.773438 75.804688 113.132812 76.433594 C 112.296875 77.242188 111.453125 78.039062 110.605469 78.835938 C 108.460938 80.839844 106.253906 82.921875 104.367188 85.15625 C 104.265625 85.222656 104.175781 85.300781 104.097656 85.390625 C 102.003906 83.976562 99.617188 82.984375 97.308594 82.023438 C 96.320312 81.613281 95.332031 81.199219 94.367188 80.761719 C 93.546875 80.390625 92.851562 80.210938 92.238281 80.210938 C 90.683594 80.210938 89.722656 81.40625 89.3125 83.871094 C 88.066406 91.363281 87.550781 101.335938 92.132812 106.050781 L 92.070312 106.398438 L 92.070312 106.449219 C 92.25 108.890625 92.03125 111.359375 91.828125 113.746094 C 91.582031 116.496094 91.339844 119.335938 91.683594 122.175781 C 92.070312 125.285156 92.851562 128.5 94.148438 132.265625 C 91.902344 132.390625 90.003906 132.558594 88.207031 132.804688 C 86.152344 133.074219 84.074219 133.5625 82.085938 134.039062 C 79.8125 134.578125 77.464844 135.140625 75.152344 135.359375 C 74.5 135.425781 74.164062 136.003906 74.191406 136.515625 C 74.214844 137.042969 74.589844 137.417969 75.191406 137.417969 C 75.191406 137.417969 75.207031 137.417969 75.207031 137.417969 C 77.515625 137.199219 79.8125 136.644531 82.035156 136.105469 C 83.894531 135.65625 85.832031 135.195312 87.757812 134.921875 C 89.992188 134.617188 92.339844 134.398438 94.894531 134.269531 C 95.164062 134.976562 96.0625 137.25 96.0625 137.25 C 95.136719 137.570312 94.214844 137.917969 93.289062 138.265625 C 92.058594 138.726562 90.8125 139.191406 89.566406 139.589844 L 89.15625 139.714844 C 85.332031 140.964844 81.367188 142.261719 78.375 145.203125 C 78.082031 145.5 77.992188 145.898438 78.144531 146.269531 C 78.3125 146.667969 78.710938 146.949219 79.132812 146.949219 C 79.390625 146.949219 79.621094 146.847656 79.824219 146.65625 C 82.519531 144.007812 86.167969 142.839844 89.683594 141.695312 L 91.09375 141.234375 C 92.238281 140.859375 93.355469 140.4375 94.46875 140.011719 C 95.265625 139.714844 96.0625 139.421875 96.859375 139.136719 C 97.433594 140.488281 98.050781 141.835938 98.730469 143.171875 C 82.597656 147.425781 66.488281 151.832031 50.445312 156.421875 C 49.945312 156.5625 49.804688 156.972656 49.882812 157.359375 C 48.699219 157.628906 47.558594 158.089844 46.503906 158.785156 C 40.050781 162.972656 38.253906 171.144531 39.175781 178.84375 L 25.867188 184.84375 C 24.96875 185.253906 25.40625 186.5 26.226562 186.5 C 26.304688 186.578125 26.367188 186.65625 26.445312 186.734375 C 26.496094 186.964844 26.625 187.183594 26.917969 187.285156 C 26.945312 187.296875 26.984375 187.3125 27.007812 187.324219 C 30.871094 191.332031 33.992188 196.085938 34.171875 201.84375 C 34.375 208.023438 30.835938 212.25 26.1875 215.667969 C 26.074219 215.617188 25.945312 215.566406 25.828125 215.515625 C 24.867188 215.105469 24.25 216.453125 24.980469 217.019531 C 25.058594 217.597656 25.75 218.109375 26.394531 217.675781 C 26.523438 217.585938 27.84375 218.292969 28.035156 218.382812 C 28.601562 218.625 29.179688 218.871094 29.742188 219.113281 C 30.886719 219.601562 32.015625 220.089844 33.15625 220.589844 C 34.839844 221.3125 36.519531 222.042969 38.203125 222.761719 C 35.171875 224.765625 32.128906 226.785156 29.101562 228.789062 C 28.34375 229.289062 27.585938 229.792969 26.828125 230.292969 C 26.148438 230.742188 25.46875 231.203125 24.878906 231.757812 C 16.097656 240.007812 16.152344 249.757812 16.34375 252.804688 C 16.78125 259.757812 20.9375 265.925781 27.035156 269.125 C 27.097656 269.355469 27.242188 269.5625 27.546875 269.652344 C 83.34375 284.75 138.03125 299.808594 194.25 313.234375 C 210.410156 317.105469 226.570312 320.957031 242.730469 324.824219 C 242.792969 324.839844 242.84375 324.824219 242.894531 324.824219 C 242.882812 324.96875 242.910156 325.121094 243 325.238281 C 243.371094 325.75 243.5625 325.945312 244.230469 325.917969 C 244.308594 325.917969 244.398438 325.894531 244.472656 325.867188 C 244.757812 326.1875 245.269531 326.34375 245.679688 325.996094 C 287.34375 292.664062 327.210938 257.121094 365.097656 219.550781 C 365.203125 219.484375 365.292969 219.410156 365.355469 219.304688 C 365.417969 219.242188 365.496094 219.164062 365.574219 219.101562 C 366.253906 218.328125 365.113281 217.171875 364.367188 217.917969 Z M 332.84375 198.671875 C 333.371094 198.273438 333.882812 197.859375 334.410156 197.449219 C 336.515625 195.792969 338.605469 194.121094 340.648438 192.359375 C 345.988281 191.5 352.25 192.863281 354.84375 198.144531 C 355.664062 199.8125 355.933594 201.367188 355.832031 202.820312 C 355.792969 203.269531 355.703125 203.71875 355.601562 204.144531 C 353.484375 206.84375 350.3125 208.667969 347.554688 210.644531 C 344.652344 212.726562 341.75 214.808594 338.851562 216.890625 C 333.589844 220.65625 328.339844 224.433594 323.078125 228.199219 C 321.382812 229.277344 319.6875 230.371094 317.980469 231.4375 C 314.039062 233.890625 310.085938 236.320312 306.121094 238.722656 C 302.15625 241.125 298.175781 243.5 294.171875 245.867188 C 290.179688 248.230469 286.175781 250.570312 282.160156 252.90625 C 278.140625 255.234375 274.125 257.558594 270.105469 259.871094 C 266.089844 262.183594 262.058594 264.496094 258.042969 266.8125 C 254.023438 269.125 249.992188 271.4375 245.976562 273.761719 C 241.957031 276.089844 237.941406 278.414062 233.9375 280.765625 C 230.714844 282.652344 227.492188 284.554688 224.285156 286.46875 C 223.617188 286.867188 222.9375 287.253906 222.269531 287.652344 C 222.167969 287.71875 222.050781 287.78125 221.949219 287.84375 C 219.960938 289.039062 217.96875 290.234375 215.980469 291.429688 C 214.992188 292.035156 213.992188 292.636719 213.003906 293.242188 C 212.269531 293.691406 211.550781 294.230469 210.742188 294.515625 C 213.132812 291.519531 214.851562 288.140625 215.800781 284.414062 C 215.839844 284.425781 215.863281 284.425781 215.902344 284.441406 C 216.609375 278.207031 215.851562 271.578125 210.410156 267.789062 C 233.488281 256.390625 256.296875 244.464844 278.78125 231.9375 C 297.1875 221.695312 316.070312 211.546875 332.84375 198.671875 Z M 315.941406 234.738281 C 291.953125 253.691406 267.949219 272.644531 243.960938 291.585938 C 243.921875 291.316406 243.753906 291.070312 243.394531 290.980469 L 226.722656 287.035156 C 228.96875 285.699219 231.203125 284.363281 233.449219 283.050781 C 237.464844 280.699219 241.484375 278.347656 245.515625 276.023438 C 249.542969 273.683594 253.574219 271.371094 257.617188 269.046875 C 261.660156 266.722656 265.691406 264.40625 269.734375 262.082031 C 273.765625 259.757812 277.808594 257.429688 281.824219 255.09375 C 285.855469 252.753906 289.871094 250.402344 293.875 248.039062 C 297.882812 245.671875 301.886719 243.296875 305.863281 240.878906 C 309.242188 238.863281 312.589844 236.808594 315.941406 234.738281 Z M 330.355469 180.550781 C 330.484375 180.617188 330.597656 180.640625 330.714844 180.65625 C 330.828125 180.835938 330.996094 180.976562 331.253906 181.054688 L 332.136719 181.285156 C 326.324219 184.960938 320.328125 188.289062 314.257812 191.460938 C 313.566406 191.820312 312.871094 192.179688 312.179688 192.527344 C 298.097656 199.722656 283.519531 205.917969 269.054688 212.34375 C 246.4375 222.390625 224.453125 233.710938 202.492188 245.109375 C 195.867188 235.816406 193.75 220.386719 206.6875 215.335938 C 206.789062 215.296875 206.867188 215.207031 206.957031 215.128906 C 207.816406 215 208.625 214.757812 209.394531 214.296875 C 209.5625 214.191406 209.664062 214.0625 209.71875 213.933594 C 232.578125 203.769531 255.359375 193.414062 278.078125 182.902344 C 278.847656 182.542969 279.617188 182.183594 280.386719 181.835938 C 296.03125 174.589844 311.652344 167.292969 327.222656 159.902344 C 323.78125 166.570312 322.960938 176.734375 330.355469 180.550781 Z M 133.515625 220.796875 C 131.191406 209.644531 133.953125 198.234375 141.101562 189.394531 C 150.035156 193.132812 158.96875 196.84375 167.9375 200.480469 C 174.164062 203 180.324219 205.660156 186.574219 208.113281 C 189.707031 209.347656 192.851562 210.53125 196.035156 211.609375 C 197.613281 212.148438 199.207031 212.664062 200.796875 213.152344 C 201.207031 213.28125 204.148438 214.527344 204.453125 214.371094 C 192.761719 220.207031 193.789062 234.839844 200.039062 244.75 C 199.578125 244.015625 181.234375 238.476562 177.4375 237.117188 C 172.148438 235.214844 166.875 233.300781 161.585938 231.398438 C 152.214844 228.019531 142.859375 224.640625 133.488281 221.257812 C 133.527344 221.132812 133.554688 220.976562 133.515625 220.796875 Z M 131.578125 220.578125 C 127.378906 219.0625 123.167969 217.546875 118.972656 216.03125 C 119.089844 215.886719 119.179688 215.707031 119.191406 215.476562 C 119.433594 205.789062 121.308594 192.683594 128.277344 185.152344 C 128.742188 184.972656 129.214844 184.804688 129.691406 184.625 C 132.898438 185.976562 136.121094 187.3125 139.328125 188.660156 C 132.207031 197.769531 129.421875 209.195312 131.578125 220.578125 Z M 115.316406 196.691406 C 116.085938 194.019531 117.164062 190.882812 118.714844 188.09375 C 118.921875 188.070312 119.113281 188.054688 119.320312 188.019531 C 121.28125 187.695312 123.09375 187.132812 124.800781 186.5 C 119.179688 194.53125 117.546875 206.265625 117.316406 215.453125 C 116.25 215.066406 115.1875 214.679688 114.109375 214.296875 C 114.109375 214.230469 114.132812 214.167969 114.121094 214.089844 C 113.351562 208.230469 113.683594 202.371094 115.316406 196.691406 Z M 112.222656 213.601562 C 110.140625 212.855469 108.0625 212.097656 105.972656 211.351562 C 104.917969 210.96875 103.777344 210.785156 102.929688 210.15625 C 102.621094 209.925781 102.351562 209.644531 102.132812 209.257812 C 100.914062 207.0625 101.441406 204.117188 101.273438 201.714844 C 101.042969 198.335938 101.054688 194.890625 101.941406 191.589844 C 102.519531 189.445312 103.417969 187.441406 104.507812 185.539062 C 104.929688 185.859375 105.367188 186.15625 105.855469 186.4375 C 108.191406 187.761719 111.078125 188.441406 114.429688 188.441406 C 115.097656 188.441406 115.789062 188.402344 116.496094 188.351562 C 115.457031 190.445312 114.632812 192.628906 113.96875 194.6875 C 111.964844 200.839844 111.488281 207.203125 112.222656 213.601562 Z M 100.117188 209.230469 C 96.792969 208.039062 93.46875 206.828125 90.144531 205.632812 C 90.441406 205.441406 90.644531 205.09375 90.542969 204.644531 C 87.859375 193.492188 91.503906 182.375 100.054688 175.15625 C 100.027344 176.082031 100.066406 176.992188 100.195312 177.867188 C 100.554688 180.4375 101.542969 182.570312 103.121094 184.253906 C 102.109375 185.960938 101.246094 187.746094 100.59375 189.648438 C 98.4375 195.945312 99.554688 202.757812 100.117188 209.230469 Z M 132.050781 183.828125 C 135.863281 182.648438 139.894531 181.796875 144.117188 181.335938 C 149.546875 180.746094 155.320312 180.4375 161.316406 180.4375 C 171.597656 180.4375 182.816406 181.296875 195.597656 183.082031 C 199.691406 183.648438 203.890625 184.328125 208.136719 185.011719 C 220.0625 186.925781 232.382812 188.917969 244.472656 188.917969 C 252.867188 188.917969 260.339844 187.929688 267.101562 185.949219 C 247.617188 194.90625 228.097656 203.785156 208.496094 212.496094 C 208.265625 212.597656 208.136719 212.765625 208.046875 212.945312 C 207.507812 213.214844 206.957031 213.371094 206.339844 213.410156 C 205.710938 213.445312 204.070312 212.316406 203.402344 212.058594 C 202.09375 211.558594 200.769531 211.109375 199.449219 210.632812 C 196.832031 209.695312 194.226562 208.742188 191.605469 207.792969 C 186.292969 205.839844 180.980469 203.847656 175.703125 201.78125 C 164.140625 197.242188 152.640625 192.539062 141.175781 187.722656 C 141.011719 187.566406 140.816406 187.476562 140.601562 187.476562 C 137.761719 186.269531 134.914062 185.035156 132.050781 183.828125 Z M 322.253906 156.535156 C 324.410156 156.804688 326.066406 157.359375 327.324219 157.847656 C 312.476562 164.902344 297.574219 171.867188 282.644531 178.777344 C 292.566406 172.085938 298.804688 162.664062 302.578125 152.347656 C 314.4375 154.929688 322.101562 156.511719 322.253906 156.535156 Z M 107.574219 140 L 107.230469 140.0625 C 105.007812 140.847656 102.800781 141.707031 100.671875 142.621094 C 100.015625 141.363281 99.386719 140.011719 98.757812 138.523438 C 100.941406 137.878906 102.710938 137.582031 104.597656 137.582031 C 105.253906 137.582031 105.585938 137.070312 105.585938 136.570312 C 105.585938 136.054688 105.253906 135.539062 104.457031 135.527344 C 102.492188 135.527344 100.425781 135.875 97.972656 136.605469 C 97.652344 135.785156 97.332031 134.976562 97.039062 134.164062 C 98.769531 134.101562 100.515625 134.0625 102.261719 134.0625 C 102.632812 134.0625 102.941406 133.894531 103.121094 133.585938 C 103.3125 133.253906 103.3125 132.828125 103.121094 132.496094 C 102.941406 132.1875 102.632812 132.019531 102.261719 132.019531 C 100.273438 132.019531 98.28125 132.058594 96.292969 132.136719 C 94.726562 127.703125 93.855469 124.066406 93.585938 120.6875 C 93.390625 118.285156 93.625 115.855469 93.839844 113.503906 C 94.058594 111.179688 94.289062 108.773438 94.109375 106.386719 C 94.097656 106.269531 94.074219 106.167969 94.046875 106.167969 C 94.035156 106.167969 94.019531 106.179688 94.007812 106.207031 C 94.199219 105.808594 94.136719 105.382812 93.828125 105.0625 C 90.003906 101.179688 90.554688 93.855469 90.953125 88.511719 L 91.003906 87.832031 C 91.03125 87.523438 91.03125 87.109375 91.03125 86.660156 C 91.03125 85.582031 91.042969 84.117188 91.402344 83.539062 C 91.761719 82.960938 92.261719 82.679688 92.90625 82.679688 C 93.6875 82.679688 94.546875 83.0625 95.316406 83.410156 L 96.652344 83.976562 C 99.914062 85.324219 103.300781 86.710938 105.664062 89.476562 C 105.90625 89.757812 106.175781 89.820312 106.367188 89.820312 C 106.753906 89.820312 107.125 89.566406 107.304688 89.179688 C 107.484375 88.792969 107.421875 88.382812 107.152344 88.0625 C 106.714844 87.546875 106.242188 87.097656 105.738281 86.660156 C 107.5625 84.515625 109.640625 82.5625 111.644531 80.6875 C 112.3125 80.054688 112.980469 79.425781 113.644531 78.796875 C 114.492188 77.976562 115.316406 77.125 116.125 76.277344 C 117.058594 75.316406 117.996094 74.339844 118.972656 73.414062 C 119.808594 72.628906 120.769531 71.949219 121.707031 71.292969 C 122.695312 70.597656 123.734375 69.867188 124.621094 69.007812 C 126.507812 67.179688 128.6875 65.78125 130.382812 64.777344 C 134.246094 62.476562 138.648438 60.433594 144.246094 58.367188 C 154.65625 54.523438 162.675781 51.839844 170.273438 49.667969 C 184.882812 45.503906 199.898438 43.382812 214.914062 43.382812 C 219.226562 43.382812 223.566406 43.5625 227.800781 43.921875 C 237.570312 44.746094 246.785156 47.214844 255.28125 49.746094 C 262.625 51.941406 271.183594 54.820312 279 59.625 C 293.222656 68.351562 302.039062 82.242188 304.503906 99.804688 C 305.789062 108.941406 307.699219 130.515625 301.167969 149.855469 C 300.9375 150.535156 300.691406 151.21875 300.449219 151.886719 C 295.597656 164.902344 286.726562 176.644531 270.941406 182.53125 C 263.085938 185.460938 254.34375 186.886719 244.230469 186.886719 C 232.253906 186.886719 220.011719 184.910156 208.175781 182.980469 C 202.953125 182.132812 198.023438 181.335938 193.09375 180.695312 C 180.992188 179.113281 170.53125 178.34375 161.125 178.34375 C 152.933594 178.34375 145.542969 178.894531 138.519531 180.050781 L 137.390625 180.257812 C 134.796875 180.71875 132.078125 181.476562 129.125 182.582031 C 128.984375 182.632812 128.84375 182.683594 128.6875 182.738281 C 128.085938 182.96875 127.496094 183.226562 126.890625 183.46875 C 126.699219 183.546875 126.519531 183.625 126.328125 183.699219 C 124.914062 184.304688 123.453125 184.921875 121.949219 185.34375 C 121.359375 185.511719 120.769531 185.652344 120.191406 185.78125 C 119.359375 185.960938 118.523438 186.101562 117.703125 186.207031 C 116.664062 186.335938 115.636719 186.425781 114.632812 186.425781 C 112.8125 186.425781 111.09375 186.191406 109.527344 185.742188 C 107.984375 185.292969 106.691406 184.625 105.636719 183.75 C 105.148438 183.351562 104.6875 182.917969 104.300781 182.414062 C 103.582031 181.503906 103.058594 180.449219 102.699219 179.230469 C 102.199219 177.492188 102.121094 175.566406 102.324219 173.574219 C 102.390625 172.996094 102.480469 172.40625 102.582031 171.816406 C 103.480469 167.085938 105.90625 162.253906 108.628906 159.082031 L 108.859375 159.234375 L 109.011719 159.003906 C 117.664062 146.550781 131.488281 137.070312 146.914062 132.984375 C 156.363281 130.492188 167 129.21875 178.539062 129.21875 C 187.371094 129.21875 196.816406 129.964844 206.609375 131.414062 C 212.539062 132.300781 218.558594 133.457031 224.386719 134.578125 C 228.199219 135.308594 232.0625 136.042969 235.9375 136.710938 C 242.085938 137.777344 248.300781 138.664062 254.539062 139.113281 C 257.246094 139.304688 259.964844 139.433594 262.675781 139.433594 L 264.226562 139.421875 C 272.351562 139.292969 279.734375 136.351562 284.480469 131.351562 C 288.511719 127.097656 290.527344 121.523438 290.296875 115.25 C 290.269531 114.597656 289.742188 114.261719 289.242188 114.261719 C 288.960938 114.261719 288.691406 114.378906 288.5 114.558594 C 288.320312 114.738281 288.230469 114.980469 288.242188 115.265625 C 288.550781 123.679688 284.660156 130.621094 277.5625 134.308594 C 273.480469 136.425781 268.695312 137.417969 262.496094 137.417969 C 259.351562 137.417969 256.167969 137.171875 252.90625 136.890625 C 247.59375 136.441406 242.28125 135.683594 237.003906 134.808594 C 232.550781 134.074219 228.136719 133.242188 223.785156 132.429688 C 219.78125 131.671875 215.710938 130.914062 211.617188 130.222656 C 205.597656 129.207031 199.527344 128.332031 193.429688 127.871094 C 187.832031 127.445312 182.699219 127.226562 177.746094 127.226562 C 174.855469 127.226562 172.085938 127.316406 169.390625 127.472656 C 163.804688 127.765625 158.59375 128.371094 153.742188 129.296875 C 150.496094 129.914062 147.402344 130.65625 144.449219 131.558594 C 142.511719 132.148438 140.625 132.765625 138.804688 133.472656 C 136.542969 134.359375 134.335938 135.359375 132.179688 136.453125 C 129.730469 137.699219 127.355469 139.074219 125.082031 140.589844 C 120.679688 143.507812 116.675781 146.886719 113.160156 150.613281 C 112.246094 151.578125 111.363281 152.589844 110.5 153.621094 C 110.4375 153.566406 110.375 153.515625 110.308594 153.476562 C 107.011719 151.691406 104.175781 148.722656 101.671875 144.394531 C 101.964844 144.265625 102.273438 144.148438 102.570312 144.035156 C 104.300781 143.316406 106.0625 142.632812 107.820312 142.003906 C 108.398438 141.796875 108.578125 141.257812 108.5 140.808594 C 108.488281 140.730469 108.460938 140.679688 108.433594 140.617188 C 108.28125 140.257812 107.960938 140 107.574219 140 Z M 92.160156 146.808594 C 89.492188 148.324219 87.039062 149.945312 84.753906 151.691406 C 84.371094 151.988281 84.242188 152.449219 84.394531 152.914062 C 84.535156 153.335938 84.894531 153.621094 85.28125 153.621094 C 85.472656 153.621094 85.664062 153.554688 85.84375 153.414062 C 89.875 150.332031 94.445312 147.644531 99.808594 145.230469 C 102.519531 149.996094 105.597656 153.273438 109.21875 155.25 C 108.847656 155.738281 108.460938 156.253906 108.011719 156.882812 C 104.765625 160.199219 101.75 165.699219 100.566406 171.132812 C 99.925781 170.914062 99.285156 170.683594 98.640625 170.464844 C 96.691406 169.785156 94.738281 169.117188 92.777344 168.460938 C 88.847656 167.136719 84.921875 165.867188 80.980469 164.59375 C 79.839844 164.21875 78.710938 163.847656 77.566406 163.460938 C 76.746094 163.191406 75.925781 162.921875 75.101562 162.640625 C 70.339844 161.035156 65.566406 159.441406 60.726562 158.195312 C 58.828125 157.707031 56.785156 157.269531 54.746094 157.101562 C 67.183594 153.570312 79.671875 150.136719 92.160156 146.808594 Z M 43.488281 164.914062 C 48.597656 155.664062 59.097656 159.453125 67.144531 162.023438 C 68.96875 162.601562 70.789062 163.179688 72.613281 163.757812 C 73.445312 164.027344 74.292969 164.285156 75.128906 164.554688 C 83.472656 167.175781 91.839844 169.796875 100.066406 172.738281 C 90.121094 180.398438 85.753906 192.707031 88.734375 205.132812 C 84.203125 203.5 79.660156 201.855469 75.128906 200.226562 C 74.5 199.992188 73.855469 199.761719 73.226562 199.542969 C 63.539062 196.046875 53.847656 192.554688 44.15625 189.058594 C 42.578125 186.230469 41.5 183.121094 41.011719 179.921875 C 40.921875 179.320312 40.84375 178.703125 40.808594 178.097656 C 40.433594 173.5625 41.257812 168.976562 43.488281 164.914062 Z M 27.996094 216.441406 C 32.464844 212.972656 35.839844 208.640625 35.917969 202.601562 C 35.992188 197.296875 33.695312 192.628906 30.488281 188.632812 C 42.460938 193.246094 53.988281 198.824219 65.359375 204.734375 C 65.914062 205.019531 66.464844 205.300781 67.003906 205.597656 C 83.203125 214.050781 99.117188 223.097656 115.585938 230.960938 C 145.453125 245.222656 176.421875 256.980469 207.355469 268.675781 C 207.507812 268.855469 207.742188 268.945312 207.996094 268.917969 C 208.433594 269.085938 208.871094 269.253906 209.320312 269.417969 C 209.472656 269.484375 209.613281 269.484375 209.742188 269.46875 C 214.03125 272.773438 214.710938 278.066406 214.246094 283.257812 C 214.195312 283.335938 214.144531 283.425781 214.121094 283.527344 C 213.207031 287.34375 211.515625 290.789062 208.984375 293.792969 C 208.832031 293.972656 208.78125 294.179688 208.765625 294.386719 C 189.628906 286.136719 170.503906 277.886719 151.367188 269.652344 C 147.902344 268.160156 144.4375 266.65625 140.972656 265.167969 C 107.871094 250.902344 74.78125 236.640625 41.679688 222.363281 C 41.089844 222.109375 40.484375 221.851562 39.894531 221.59375 C 35.941406 219.859375 31.976562 218.148438 27.996094 216.441406 Z M 39.960938 223.496094 C 39.960938 223.496094 39.960938 223.507812 39.960938 223.496094 C 44.527344 225.460938 49.074219 227.425781 53.628906 229.394531 C 58.1875 231.359375 62.742188 233.324219 67.296875 235.277344 C 71.855469 237.242188 76.410156 239.210938 80.96875 241.164062 C 85.523438 243.128906 90.082031 245.09375 94.636719 247.046875 C 99.195312 249 103.75 250.980469 108.308594 252.933594 C 112.863281 254.898438 117.417969 256.867188 121.976562 258.820312 C 124.222656 259.78125 126.46875 260.757812 128.703125 261.722656 C 110.4375 256.660156 92.210938 251.417969 74.035156 245.96875 C 58.800781 241.40625 43.628906 236.679688 28.472656 231.898438 C 28.355469 231.835938 28.242188 231.796875 28.113281 231.78125 C 27.945312 231.730469 27.792969 231.679688 27.625 231.628906 C 31.734375 228.945312 35.839844 226.21875 39.960938 223.496094 Z M 74.730469 280.917969 C 59.085938 276.910156 44.296875 272.503906 28.730469 268.277344 C 28.679688 268.238281 28.679688 268.171875 28.613281 268.148438 C 22.261719 265.167969 17.882812 258.804688 17.882812 251.6875 C 17.882812 244.234375 21.273438 237.628906 26.625 232.992188 C 63.460938 244.59375 102.070312 256.132812 139.304688 266.335938 C 142.628906 267.773438 145.953125 269.199219 149.277344 270.640625 C 153.832031 272.605469 158.390625 274.570312 162.945312 276.523438 C 167.503906 278.492188 172.058594 280.457031 176.617188 282.410156 C 181.171875 284.375 185.726562 286.34375 190.285156 288.296875 C 194.839844 290.261719 199.398438 292.226562 203.953125 294.179688 C 204.929688 294.605469 205.917969 295.027344 206.894531 295.453125 C 207.792969 295.835938 208.742188 296.402344 209.71875 296.582031 C 210.808594 296.789062 211.605469 296.132812 212.476562 295.59375 C 213.464844 294.988281 214.464844 294.386719 215.453125 293.78125 C 217.445312 292.574219 219.433594 291.367188 221.433594 290.171875 C 222.527344 289.515625 223.617188 288.875 224.722656 288.230469 C 230.792969 289.683594 236.875 291.136719 242.960938 292.546875 C 243.074219 292.574219 243.179688 292.574219 243.269531 292.5625 C 243.34375 292.984375 243.820312 293.332031 244.292969 293.230469 C 241.933594 298.265625 240.445312 303.625 240.148438 309.214844 C 240.007812 312.054688 240.160156 314.933594 240.777344 317.71875 C 240.855469 318.066406 241.894531 321.0625 242.871094 323.167969 C 186.574219 309.714844 130.792969 295.285156 74.730469 280.917969 Z M 245.011719 324.390625 C 244.921875 323.683594 244.527344 323.195312 244.078125 322.28125 C 242.523438 319.042969 241.855469 315.5625 241.742188 311.988281 C 241.523438 305.296875 243.320312 298.691406 246.308594 292.753906 C 246.476562 292.40625 246.398438 292.085938 246.207031 291.855469 C 273.75 270.101562 301.296875 248.347656 328.839844 226.59375 C 329.917969 225.742188 330.996094 224.882812 332.085938 224.035156 C 335.617188 221.503906 339.144531 218.972656 342.675781 216.441406 C 346.898438 213.410156 352.289062 210.570312 355.949219 206.609375 C 355.871094 207.0625 355.832031 207.523438 355.832031 207.984375 C 355.832031 209.847656 356.398438 211.738281 357.398438 213.445312 C 358.375 215.117188 360.566406 218.328125 362.878906 219.359375 C 325.453125 256.402344 286.113281 291.46875 245.011719 324.390625 Z M 150.199219 92.699219 C 150.046875 92.40625 150.074219 92.046875 150.277344 91.75 C 154.871094 85.082031 163.203125 82.382812 169.953125 80.777344 C 169.992188 80.777344 170.019531 80.777344 170.054688 80.777344 C 170.710938 80.777344 171.082031 81.070312 171.210938 81.496094 C 172.726562 86.816406 173.90625 94.214844 170.941406 99.242188 C 170.75 99.5625 170.453125 99.742188 170.109375 99.742188 C 169.722656 99.742188 169.351562 99.523438 169.15625 99.1875 C 168.976562 98.882812 168.992188 98.519531 169.183594 98.210938 C 171.636719 94.050781 170.738281 87.703125 169.503906 83.011719 C 163.433594 84.527344 156.039062 87.019531 152.035156 92.816406 C 151.832031 93.113281 151.535156 93.277344 151.1875 93.277344 C 150.777344 93.277344 150.378906 93.046875 150.199219 92.699219 Z M 143.027344 119.75 C 142.808594 119.453125 142.769531 119.105469 142.921875 118.8125 C 143.101562 118.464844 143.5 118.230469 143.910156 118.230469 C 144.257812 118.230469 144.554688 118.386719 144.757812 118.667969 C 145.683594 119.953125 147.160156 120.660156 148.902344 120.660156 C 150.867188 120.660156 152.871094 119.722656 154 118.269531 C 154.179688 118.027344 154.4375 117.898438 154.691406 117.898438 C 155.066406 117.898438 155.410156 118.140625 155.605469 118.515625 C 155.796875 118.902344 155.746094 119.324219 155.488281 119.660156 C 154.011719 121.558594 151.613281 122.679688 149.058594 122.679688 C 146.582031 122.691406 144.375 121.625 143.027344 119.75 Z M 111.398438 124.824219 C 108.910156 124.824219 106.703125 123.757812 105.355469 121.882812 C 105.136719 121.585938 105.097656 121.238281 105.253906 120.945312 C 105.433594 120.597656 105.828125 120.367188 106.242188 120.367188 C 106.585938 120.367188 106.882812 120.519531 107.085938 120.800781 C 108.011719 122.085938 109.488281 122.792969 111.234375 122.792969 C 113.195312 122.792969 115.199219 121.855469 116.328125 120.402344 C 116.507812 120.160156 116.765625 120.03125 117.023438 120.03125 C 117.394531 120.03125 117.742188 120.277344 117.933594 120.648438 C 118.125 121.035156 118.074219 121.457031 117.816406 121.792969 C 116.355469 123.695312 113.953125 124.824219 111.398438 124.824219 Z M 125.46875 126.019531 C 125.160156 125.738281 125.070312 125.351562 125.210938 124.976562 C 125.363281 124.566406 125.789062 124.285156 126.210938 124.285156 C 126.46875 124.285156 126.699219 124.386719 126.890625 124.566406 C 127.148438 124.796875 127.417969 125.132812 127.699219 125.492188 C 128.316406 126.261719 129.023438 127.148438 129.742188 127.148438 C 130.628906 127.074219 131.398438 126.226562 132.066406 125.464844 C 132.371094 125.121094 132.667969 124.796875 132.9375 124.554688 C 133.128906 124.386719 133.375 124.296875 133.617188 124.296875 C 134.054688 124.296875 134.492188 124.59375 134.644531 125.015625 C 134.785156 125.390625 134.671875 125.761719 134.363281 126.042969 C 134.027344 126.328125 133.707031 126.660156 133.375 127.007812 C 132.640625 127.765625 131.898438 128.539062 130.949219 128.949219 L 130.949219 129.128906 C 130.78125 129.988281 130.84375 130.890625 130.910156 131.761719 C 130.933594 132.1875 130.972656 132.625 130.972656 133.046875 C 130.972656 133.332031 130.882812 133.574219 130.703125 133.753906 C 130.511719 133.945312 130.242188 134.050781 129.960938 134.050781 C 129.445312 134.050781 128.933594 133.703125 128.921875 133.0625 C 128.921875 132.648438 128.894531 132.226562 128.867188 131.8125 C 128.816406 130.925781 128.777344 130.027344 128.882812 129.117188 C 127.84375 128.808594 127.097656 127.933594 126.378906 127.085938 C 126.097656 126.675781 125.800781 126.316406 125.46875 126.019531 Z M 125.46875 126.019531 " fill-opacity="1" fill-rule="nonzero"/></g></svg>